. 
  
http://www.torrenting.com/        :     Greatest Movie Tracker on The Net!!!
 
http://www.Torrenting.com          :     Once & For all ;)


               www . Torrenting . Com 

(((((((((((((= Enjoy No RAR releases =))))))))))))))))))))


...................................NFO:....................................

.[img]http://img854.imageshack.us/img854/7665/thebeavercover.jpg[/img]


[color=blue][size=5][b]The.Beaver.2011.HDRip.XVID.AC3.HQ.Hive-CM8[/b][/size][/color]


[b]Thx Hive

CM8 Doing It Right The First Time :D

Source: HD-Stream with 5.1 track

Encode:

well tagging this movie is kinda difficult. have seen it tagged from dvdrip,ppv,hdtv etc.
from sharpness and motion its not a retail file thats for sure, best guess is a web-download 
from itunes or similar ppv site in the end it doesnt matter, i am just happy to get you some quality stuff.
Since this is a hdstream prolly the best tag is hdrip.
Besides sharpness video was really nice,came along with 5.1 audio so did my usual with sharpness,brightness,rgb 
and denoise, got very nice in the end
just check pics and sample
enjoy

Video: 720x400 @bitrate 1800 2pass
Audio: English AC3 5.1 @384
Sample: yes included[/b]


[url]http://www.imdb.com/title/tt1321860/[/url]


General
Complete name                    : The.Beaver.2011.HDRip.XVID.AC3.HQ.Hive-CM8.avi
Format                           : AVI
Format/Info                      : Audio Video Interleave
File size                        : 1.39 GiB
Duration                         : 1h 30mn
Overall bit rate                 : 2 193 Kbps
Writing application              : Nandub v1.0rc2
Writing library                  : Nandub build 1853/release

Video
ID                               : 0
Format                           : MPEG-4 Visual
Format profile                   : Advanced Simple@L5
Format settings, BVOP            : 1
Format settings, QPel            : Yes
Format settings, GMC             : No warppoints
Format settings, Matrix          : Default (H.263)
Muxing mode                      : Packed bitstream
Codec ID                         : XVID
Codec ID/Hint                    : XviD
Duration                         : 1h 30mn
Bit rate                         : 1 800 Kbps
Width                            : 720 pixels
Height                           : 400 pixels
Display aspect ratio             : 16:9
Frame rate                       : 23.976 fps
Color space                      : YUV
Chroma subsampling               : 4:2:0
Bit depth                        : 8 bits
Scan type                        : Progressive
Compression mode                 : Lossy
Bits/(Pixel*Frame)               : 0.261
Stream size                      : 1.14 GiB (82%)
Writing library                  : XviD 1.2.1 (UTC 2008-12-04)

Audio
ID                               : 1
Format                           : AC-3
Format/Info                      : Audio Coding 3
Mode extension                   : CM (complete main)
Codec ID                         : 2000
Duration                         : 1h 30mn
Bit rate mode                    : Constant
Bit rate                         : 384 Kbps
Channel(s)                       : 6 channels
Channel positions                : Front: L C R, Side: L R, LFE
Sampling rate                    : 48.0 KHz
Bit depth                        : 16 bits
Compression mode                 : Lossy
Delay relative to video          : 22ms
Stream size                      : 250 MiB (18%)
Alignment                        : Split accross interleaves
Interleave, duration             : 42 ms (1.00 video frame)
Interleave, preload duration     : 500 ms



Mel Gibson	... 	Walter Black
Cherry Jones	... 	Vice President
Jodie Foster	... 	Meredith Black
Anton Yelchin	... 	Porter Black
Riley Thomas Stewart	... 	Henry Black
Zachary Booth	... 	Jared


A troubled husband and executive adopts a beaver hand-puppet as his sole means of communicating. 


[img]http://img837.imageshack.us/img837/7229/23974858.png[/img]
[img]http://img191.imageshack.us/img191/397/bebeo.png[/img]
[img]http://img35.imageshack.us/img35/1881/bebebe.png[/img]
[img]http://img843.imageshack.us/img843/2175/bebebebej.png[/img]
[img]http://img88.imageshack.us/img88/909/bebebebebe.png[/img]
[img]http://img194.imageshack.us/img194/5969/bebebebebebe.png[/img]
[img]http://img3.imageshack.us/img3/3021/bebebebebebebe.png[/img]




Greetz

ViSiON,SiC,SANTi,3LT0N,YanKeeS,MAGNET,THC,T0XiC,LKRG,FANTASIA-PLAY,FANTASIA-M,BHRG,IMAGiNE,WBZ,FLAWL3SS,NOVA,
D2U,Vik,Rapeseed,SAFC,goldadvance,MEMORY100,scumbag,Hero5,KaN1vE,Unevano,Pinnz,Wayne,cedrict wink,
Mr Hive and all P2P groups
Great Work Guys :D

FYS

CM8@hushmail.com